<svg width="1024" height="1024" viewBox="0 0 1024 1024" xmlns="http://www.w3.org/2000/svg">
  <!-- Transparent background — design centered in middle 66% safe zone (341px to 683px) -->
  <!-- Pin shape -->
  <path d="M512 100 C350 100 220 230 220 400 C220 580 512 900 512 900 C512 900 804 580 804 400 C804 230 674 100 512 100Z" fill="#006994"/>

  <!-- White circle in pin -->
  <circle cx="512" cy="400" r="185" fill="#FFF9F0"/>

  <!-- Truck body -->
  <rect x="360" y="322" width="304" height="176" rx="28" fill="#003F5C"/>

  <!-- Roof awning stripe -->
  <rect x="360" y="322" width="304" height="60" rx="22" fill="#FF6B6B"/>
  <rect x="360" y="358" width="304" height="24" fill="#FF6B6B"/>

  <!-- Main service window -->
  <rect x="372" y="350" width="130" height="96" rx="10" fill="#48B4E0"/>
  <line x1="437" y1="350" x2="437" y2="446" stroke="#006994" stroke-width="6" opacity="0.5"/>
  <rect x="372" y="392" width="130" height="8" fill="#006994" opacity="0.25"/>

  <!-- Counter/window ledge -->
  <rect x="368" y="444" width="138" height="10" rx="3" fill="#FFD166" opacity="0.7"/>

  <!-- Menu board panel -->
  <rect x="514" y="356" width="136" height="78" rx="8" fill="#FFF9F0" opacity="0.1"/>
  <rect x="522" y="364" width="120" height="62" rx="6" fill="#48B4E0" opacity="0.45"/>
  <line x1="582" y1="356" x2="582" y2="434" stroke="#FFF9F0" stroke-width="5" opacity="0.2"/>
  <rect x="530" y="376" width="64" height="5" rx="2" fill="#FFF9F0" opacity="0.5"/>
  <rect x="530" y="390" width="48" height="5" rx="2" fill="#FFF9F0" opacity="0.4"/>
  <rect x="530" y="404" width="56" height="5" rx="2" fill="#FFF9F0" opacity="0.35"/>
  <rect x="600" y="376" width="32" height="5" rx="2" fill="#FFD166" opacity="0.5"/>
  <rect x="600" y="390" width="32" height="5" rx="2" fill="#FFD166" opacity="0.5"/>
  <rect x="600" y="404" width="32" height="5" rx="2" fill="#FFD166" opacity="0.5"/>

  <!-- Exhaust stack -->
  <rect x="634" y="300" width="18" height="58" rx="6" fill="#FFD166"/>
  <rect x="628" y="296" width="30" height="16" rx="6" fill="#FFD166"/>

  <!-- Truck undercarriage -->
  <rect x="360" y="490" width="304" height="30" rx="6" fill="#002e4a"/>

  <!-- Wheels -->
  <circle cx="424" cy="510" r="36" fill="#003F5C"/>
  <circle cx="424" cy="510" r="22" fill="#FFD166"/>
  <circle cx="424" cy="510" r="9" fill="#003F5C"/>
  <circle cx="592" cy="510" r="36" fill="#003F5C"/>
  <circle cx="592" cy="510" r="22" fill="#FFD166"/>
  <circle cx="592" cy="510" r="9" fill="#003F5C"/>

  <!-- Rear step -->
  <rect x="454" y="480" width="96" height="34" rx="6" fill="#002e4a" opacity="0.6"/>
</svg>
